# xmcd
#
# Track frame offsets:
#	150
#	7800
#	29700
#	57150
#	81750
#	108450
#	129300
#	156000
#	171825
#	204225
#	218320
#	240595
#
# Disc length: 3378 seconds
#
# Revision: 2
# Processed by: cddbd v1.5.1PL0 Copyright (c) Steve Scherf et al.
# Submitted via: EasyCDDAExtractor 8.0.2.1
#
DISCID=8d0d300c
DTITLE=Ozzy Osbourne - Maple Leaf Garden Toronto 27-07-81
DYEAR=1981
DGENRE=Hard Rock
TTITLE0=Intro
TTITLE1=I Don't Know
TTITLE2=Crazy Train
TTITLE3=Believer
TTITLE4=Mr Crowley
TTITLE5=Flying High Again
TTITLE6=Revelation (Mother Earth)
TTITLE7=Steal Away (The Night)
TTITLE8=Suicide Solution
TTITLE9=Iron Man
TTITLE10=Children Of The Grave
TTITLE11=Paranoid
EXTD=
EXTT0=
EXTT1=
EXTT2=
EXTT3=
EXTT4=
EXTT5=
EXTT6=
EXTT7=
EXTT8=
EXTT9=
EXTT10=
EXTT11=
PLAYORDER=
